MFile 1 2 960
MTrk
0 TimeSig 6/8 36 8
0 KeySig 0 major
0 Meta TrkName "Fur Elise"
0 Meta Text "Beethoven"
1920 Tempo 600000
83520 Tempo 600000
83689 Tempo 608955
83858 Tempo 618181
84026 Tempo 627692
84195 Tempo 637500
84364 Tempo 647619
84533 Tempo 658064
84701 Tempo 668852
84870 Tempo 680000
85039 Tempo 691525
85208 Tempo 703448
85376 Tempo 715789
85545 Tempo 728571
85714 Tempo 741818
85883 Tempo 755555
86051 Tempo 769811
86220 Tempo 784615
86221 Meta TrkEnd
TrkEnd
MTrk
1920 PrCh ch=1 p=0
1920 Par ch=1 c=121 v=0
1920 Par ch=1 c=64 v=0
1920 Par ch=1 c=91 v=48
1920 Par ch=1 c=10 v=64
1920 Par ch=1 c=7 v=100
1920 On ch=1 n=76 v=67
1920 PrCh ch=2 p=0
1920 Par ch=2 c=121 v=0
1920 Par ch=2 c=64 v=0
1920 Par ch=2 c=91 v=48
1920 Par ch=2 c=10 v=64
1920 Par ch=2 c=7 v=100
1920 Meta TrkName " "
2400 On ch=1 n=75 v=63
2408 Off ch=1 n=76 v=0
2880 On ch=1 n=76 v=74
2888 Off ch=1 n=75 v=0
3360 On ch=1 n=75 v=71
3368 Off ch=1 n=76 v=0
3840 On ch=1 n=76 v=79
3848 Off ch=1 n=75 v=0
4320 On ch=1 n=71 v=69
4328 Off ch=1 n=76 v=0
4800 On ch=1 n=74 v=86
4808 Off ch=1 n=71 v=0
5280 On ch=1 n=72 v=82
5288 Off ch=1 n=74 v=0
5760 On ch=1 n=69 v=71
5760 On ch=2 n=45 v=55
5768 Off ch=1 n=72 v=0
6240 On ch=2 n=52 v=60
6248 Off ch=2 n=45 v=0
6671 Off ch=1 n=69 v=0
6720 On ch=2 n=57 v=65
6728 Off ch=2 n=52 v=0
7174 Off ch=2 n=57 v=0
7200 On ch=1 n=60 v=72
7680 On ch=1 n=64 v=79
7688 Off ch=1 n=60 v=0
8160 On ch=1 n=69 v=84
8168 Off ch=1 n=64 v=0
8640 On ch=1 n=71 v=87
8640 On ch=2 n=52 v=55
8648 Off ch=1 n=69 v=0
9120 On ch=2 n=56 v=55
9128 Off ch=2 n=52 v=0
9551 Off ch=1 n=71 v=0
9600 On ch=2 n=59 v=67
9608 Off ch=2 n=56 v=0
10054 Off ch=2 n=59 v=0
10080 On ch=1 n=64 v=67
10560 On ch=1 n=68 v=74
10568 Off ch=1 n=64 v=0
11040 On ch=1 n=71 v=79
11048 Off ch=1 n=68 v=0
11520 On ch=1 n=72 v=81
11520 On ch=2 n=45 v=56
11528 Off ch=1 n=71 v=0
12000 On ch=2 n=52 v=61
12008 Off ch=2 n=45 v=0
12431 Off ch=1 n=72 v=0
12480 On ch=2 n=57 v=65
12488 Off ch=2 n=52 v=0
12934 Off ch=2 n=57 v=0
12960 On ch=1 n=64 v=70
13440 On ch=1 n=76 v=88
13448 Off ch=1 n=64 v=0
13920 On ch=1 n=75 v=71
13928 Off ch=1 n=76 v=0
14400 On ch=1 n=76 v=74
14408 Off ch=1 n=75 v=0
14880 On ch=1 n=75 v=72
14888 Off ch=1 n=76 v=0
15360 On ch=1 n=76 v=75
15368 Off ch=1 n=75 v=0
15840 On ch=1 n=71 v=68
15848 Off ch=1 n=76 v=0
16320 On ch=1 n=74 v=74
16328 Off ch=1 n=71 v=0
16800 On ch=1 n=72 v=75
16808 Off ch=1 n=74 v=0
17280 On ch=1 n=69 v=62
17280 On ch=2 n=45 v=55
17288 Off ch=1 n=72 v=0
17760 On ch=2 n=52 v=57
17768 Off ch=2 n=45 v=0
18191 Off ch=1 n=69 v=0
18240 On ch=2 n=57 v=64
18248 Off ch=2 n=52 v=0
18694 Off ch=2 n=57 v=0
18720 On ch=1 n=60 v=66
19200 On ch=1 n=64 v=75
19208 Off ch=1 n=60 v=0
19680 On ch=1 n=69 v=91
19688 Off ch=1 n=64 v=0
20160 On ch=1 n=71 v=99
20160 On ch=2 n=52 v=57
20168 Off ch=1 n=69 v=0
20640 On ch=2 n=56 v=62
20648 Off ch=2 n=52 v=0
21071 Off ch=1 n=71 v=0
21120 On ch=2 n=59 v=65
21128 Off ch=2 n=56 v=0
21574 Off ch=2 n=59 v=0
21600 On ch=1 n=64 v=69
22080 On ch=1 n=72 v=84
22088 Off ch=1 n=64 v=0
22560 On ch=1 n=71 v=75
22568 Off ch=1 n=72 v=0
23040 On ch=1 n=69 v=74
23040 On ch=2 n=45 v=53
23048 Off ch=1 n=71 v=0
23520 On ch=2 n=52 v=54
23528 Off ch=2 n=45 v=0
24000 On ch=2 n=57 v=67
24008 Off ch=2 n=52 v=0
24454 Off ch=2 n=57 v=0
24863 Off ch=1 n=69 v=0
24960 On ch=1 n=76 v=93
25440 On ch=1 n=75 v=91
25448 Off ch=1 n=76 v=0
25920 On ch=1 n=76 v=79
25928 Off ch=1 n=75 v=0
26400 On ch=1 n=75 v=78
26408 Off ch=1 n=76 v=0
26880 On ch=1 n=76 v=83
26888 Off ch=1 n=75 v=0
27360 On ch=1 n=71 v=76
27368 Off ch=1 n=76 v=0
27840 On ch=1 n=74 v=81
27848 Off ch=1 n=71 v=0
28320 On ch=1 n=72 v=78
28328 Off ch=1 n=74 v=0
28800 On ch=1 n=69 v=65
28800 On ch=2 n=45 v=55
28808 Off ch=1 n=72 v=0
29280 On ch=2 n=52 v=60
29288 Off ch=2 n=45 v=0
29711 Off ch=1 n=69 v=0
29760 On ch=2 n=57 v=69
29768 Off ch=2 n=52 v=0
30214 Off ch=2 n=57 v=0
30240 On ch=1 n=60 v=72
30720 On ch=1 n=64 v=81
30728 Off ch=1 n=60 v=0
31200 On ch=1 n=69 v=87
31208 Off ch=1 n=64 v=0
31654 Off ch=1 n=69 v=0
31680 On ch=1 n=71 v=82
31680 On ch=2 n=52 v=55
32160 On ch=2 n=56 v=57
32168 Off ch=2 n=52 v=0
32640 Off ch=1 n=71 v=0
32640 On ch=2 n=59 v=63
32648 Off ch=2 n=56 v=0
33094 Off ch=2 n=59 v=0
33120 On ch=1 n=64 v=73
33600 On ch=1 n=68 v=78
33608 Off ch=1 n=64 v=0
34080 On ch=1 n=71 v=90
34088 Off ch=1 n=68 v=0
34560 On ch=1 n=72 v=100
34560 On ch=2 n=45 v=58
34568 Off ch=1 n=71 v=0
35040 On ch=2 n=52 v=61
35048 Off ch=2 n=45 v=0
35471 Off ch=1 n=72 v=0
35520 On ch=2 n=57 v=67
35528 Off ch=2 n=52 v=0
35974 Off ch=2 n=57 v=0
36000 On ch=1 n=64 v=70
36480 On ch=1 n=76 v=89
36488 Off ch=1 n=64 v=0
36960 On ch=1 n=75 v=74
36968 Off ch=1 n=76 v=0
37440 On ch=1 n=76 v=76
37448 Off ch=1 n=75 v=0
37920 On ch=1 n=75 v=74
37928 Off ch=1 n=76 v=0
38400 On ch=1 n=76 v=77
38408 Off ch=1 n=75 v=0
38880 On ch=1 n=71 v=65
38888 Off ch=1 n=76 v=0
39360 On ch=1 n=74 v=63
39368 Off ch=1 n=71 v=0
39840 On ch=1 n=72 v=73
39848 Off ch=1 n=74 v=0
40294 Off ch=1 n=72 v=0
40320 On ch=1 n=69 v=75
40320 On ch=2 n=45 v=55
40800 On ch=2 n=52 v=59
40808 Off ch=2 n=45 v=0
41280 Off ch=1 n=69 v=0
41280 On ch=2 n=57 v=64
41288 Off ch=2 n=52 v=0
41734 Off ch=2 n=57 v=0
41760 On ch=1 n=60 v=69
42240 On ch=1 n=64 v=76
42248 Off ch=1 n=60 v=0
42720 On ch=1 n=69 v=89
42728 Off ch=1 n=64 v=0
43200 On ch=1 n=71 v=94
43200 On ch=2 n=52 v=51
43208 Off ch=1 n=69 v=0
43680 On ch=2 n=56 v=54
43688 Off ch=2 n=52 v=0
44111 Off ch=1 n=71 v=0
44160 On ch=2 n=59 v=65
44168 Off ch=2 n=56 v=0
44614 Off ch=2 n=59 v=0
44640 On ch=1 n=64 v=65
45120 On ch=1 n=72 v=74
45128 Off ch=1 n=64 v=0
45600 On ch=1 n=71 v=69
45608 Off ch=1 n=72 v=0
46080 On ch=1 n=69 v=68
46080 On ch=2 n=45 v=55
46088 Off ch=1 n=71 v=0
46560 On ch=2 n=52 v=61
46568 Off ch=2 n=45 v=0
46991 Off ch=1 n=69 v=0
47040 On ch=2 n=57 v=61
47048 Off ch=2 n=52 v=0
47494 Off ch=2 n=57 v=0
47520 On ch=1 n=71 v=70
48000 On ch=1 n=72 v=90
48008 Off ch=1 n=71 v=0
48480 On ch=1 n=74 v=106
48488 Off ch=1 n=72 v=0
48960 On ch=1 n=76 v=90
48960 On ch=2 n=48 v=56
48968 Off ch=1 n=74 v=0
49440 On ch=2 n=55 v=61
49448 Off ch=2 n=48 v=0
49920 On ch=2 n=60 v=67
49928 Off ch=2 n=55 v=0
50325 Off ch=1 n=76 v=0
50374 Off ch=2 n=60 v=0
50400 On ch=1 n=67 v=66
50880 On ch=1 n=77 v=81
50888 Off ch=1 n=67 v=0
51360 On ch=1 n=76 v=85
51368 Off ch=1 n=77 v=0
51840 On ch=1 n=74 v=78
51840 On ch=2 n=55 v=54
51848 Off ch=1 n=76 v=0
52320 On ch=2 n=59 v=57
52328 Off ch=2 n=55 v=0
52800 On ch=2 n=62 v=66
52808 Off ch=2 n=59 v=0
53205 Off ch=1 n=74 v=0
53254 Off ch=2 n=62 v=0
53280 On ch=1 n=65 v=62
53760 On ch=1 n=76 v=76
53768 Off ch=1 n=65 v=0
54240 On ch=1 n=74 v=81
54248 Off ch=1 n=76 v=0
54720 On ch=1 n=72 v=74
54720 On ch=2 n=45 v=54
54728 Off ch=1 n=74 v=0
55200 On ch=2 n=52 v=64
55208 Off ch=2 n=45 v=0
55680 On ch=2 n=57 v=65
55688 Off ch=2 n=52 v=0
56085 Off ch=1 n=72 v=0
56134 Off ch=2 n=57 v=0
56160 On ch=1 n=64 v=65
56640 On ch=1 n=74 v=77
56648 Off ch=1 n=64 v=0
57120 On ch=1 n=72 v=85
57128 Off ch=1 n=74 v=0
57600 On ch=1 n=71 v=86
57600 On ch=2 n=52 v=51
57608 Off ch=1 n=72 v=0
58080 On ch=2 n=59 v=53
58088 Off ch=2 n=52 v=0
58511 Off ch=1 n=71 v=0
58560 On ch=2 n=64 v=71
58568 Off ch=2 n=59 v=0
59014 Off ch=2 n=64 v=0
59040 On ch=1 n=64 v=75
59520 On ch=1 n=76 v=96
59528 Off ch=1 n=64 v=0
59974 Off ch=1 n=76 v=0
60000 On ch=2 n=52 v=59
60480 On ch=2 n=64 v=75
60488 Off ch=2 n=52 v=0
60934 Off ch=2 n=64 v=0
60960 On ch=1 n=64 v=75
61440 On ch=1 n=76 v=93
61448 Off ch=1 n=64 v=0
61894 Off ch=1 n=76 v=0
61920 On ch=1 n=75 v=81
62400 Off ch=1 n=75 v=0
62400 On ch=1 n=76 v=87
62880 On ch=1 n=75 v=85
62888 Off ch=1 n=76 v=0
63334 Off ch=1 n=75 v=0
63360 On ch=1 n=76 v=87
63840 On ch=1 n=75 v=81
64320 Off ch=1 n=75 v=0
64800 Off ch=1 n=76 v=0
64800 On ch=1 n=75 v=72
65254 Off ch=1 n=75 v=0
65280 On ch=1 n=76 v=73
65760 On ch=1 n=75 v=60
65768 Off ch=1 n=76 v=0
66240 On ch=1 n=76 v=65
66248 Off ch=1 n=75 v=0
66720 On ch=1 n=75 v=50
66728 Off ch=1 n=76 v=0
67200 On ch=1 n=76 v=46
67208 Off ch=1 n=75 v=0
67680 On ch=1 n=71 v=42
67688 Off ch=1 n=76 v=0
68160 On ch=1 n=74 v=49
68168 Off ch=1 n=71 v=0
68640 On ch=1 n=72 v=34
68648 Off ch=1 n=74 v=0
69120 On ch=1 n=69 v=31
69120 On ch=2 n=45 v=51
69128 Off ch=1 n=72 v=0
69600 On ch=2 n=52 v=54
69608 Off ch=2 n=45 v=0
70031 Off ch=1 n=69 v=0
70080 On ch=2 n=57 v=67
70088 Off ch=2 n=52 v=0
70534 Off ch=2 n=57 v=0
70560 On ch=1 n=60 v=35
71040 On ch=1 n=64 v=40
71048 Off ch=1 n=60 v=0
71520 On ch=1 n=69 v=44
71528 Off ch=1 n=64 v=0
72000 On ch=1 n=71 v=53
72000 On ch=2 n=52 v=58
72008 Off ch=1 n=69 v=0
72480 On ch=2 n=56 v=58
72488 Off ch=2 n=52 v=0
72911 Off ch=1 n=71 v=0
72960 On ch=2 n=59 v=61
72968 Off ch=2 n=56 v=0
73414 Off ch=2 n=59 v=0
73440 On ch=1 n=64 v=33
73920 On ch=1 n=68 v=36
73928 Off ch=1 n=64 v=0
74400 On ch=1 n=71 v=45
74408 Off ch=1 n=68 v=0
74880 On ch=1 n=72 v=48
74880 On ch=2 n=45 v=55
74888 Off ch=1 n=71 v=0
75360 On ch=2 n=52 v=58
75368 Off ch=2 n=45 v=0
75791 Off ch=1 n=72 v=0
75840 On ch=2 n=57 v=67
75848 Off ch=2 n=52 v=0
76294 Off ch=2 n=57 v=0
76320 On ch=1 n=64 v=33
76800 On ch=1 n=76 v=42
76808 Off ch=1 n=64 v=0
77280 On ch=1 n=75 v=38
77288 Off ch=1 n=76 v=0
77760 On ch=1 n=76 v=37
77768 Off ch=1 n=75 v=0
78240 On ch=1 n=75 v=41
78248 Off ch=1 n=76 v=0
78720 On ch=1 n=76 v=45
78728 Off ch=1 n=75 v=0
79200 On ch=1 n=71 v=33
79208 Off ch=1 n=76 v=0
79680 On ch=1 n=74 v=36
79688 Off ch=1 n=71 v=0
80160 On ch=1 n=72 v=40
80168 Off ch=1 n=74 v=0
80640 On ch=1 n=69 v=31
80640 On ch=2 n=45 v=49
80648 Off ch=1 n=72 v=0
81120 On ch=2 n=52 v=62
81128 Off ch=2 n=45 v=0
81551 Off ch=1 n=69 v=0
81600 On ch=2 n=57 v=67
81608 Off ch=2 n=52 v=0
82054 Off ch=2 n=57 v=0
82080 On ch=1 n=60 v=36
82560 On ch=1 n=64 v=38
82568 Off ch=1 n=60 v=0
83040 On ch=1 n=69 v=45
83048 Off ch=1 n=64 v=0
83520 On ch=1 n=71 v=50
83520 On ch=2 n=52 v=53
83528 Off ch=1 n=69 v=0
84000 On ch=2 n=56 v=57
84008 Off ch=2 n=52 v=0
84431 Off ch=1 n=71 v=0
84480 On ch=2 n=59 v=63
84488 Off ch=2 n=56 v=0
84934 Off ch=2 n=59 v=0
84960 On ch=1 n=64 v=38
85440 On ch=1 n=72 v=44
85448 Off ch=1 n=64 v=0
85920 On ch=1 n=71 v=30
85928 Off ch=1 n=72 v=0
86400 On ch=1 n=69 v=31
86400 On ch=2 n=57 v=37
86400 On ch=2 n=60 v=37
86400 On ch=2 n=64 v=37
86408 Off ch=1 n=71 v=0
88223 Off ch=1 n=69 v=0
88320 Off ch=2 n=57 v=0
88320 Off ch=2 n=60 v=0
88320 Off ch=2 n=64 v=0
88321 Meta TrkEnd
TrkEnd