MFile 1 2 960
MTrk
0 TimeSig 6/8 36 8
0 KeySig 0 major
0 Tempo 363636
0 Meta Copyright "Copyright © "
20160 TimeSig 7/4 24 8
26880 Tempo 363636
26880 Tempo 500000
26880 Tempo 363636
26880 TimeSig 6/8 36 8
26881 Meta TrkEnd
TrkEnd
MTrk
0 PrCh ch=1 p=0
0 Par ch=1 c=121 v=0
0 Par ch=1 c=64 v=0
0 Par ch=1 c=91 v=48
0 Par ch=1 c=10 v=51
0 Par ch=1 c=7 v=100
0 On ch=1 n=60 v=52
0 Par ch=1 c=121 v=0
0 Par ch=1 c=64 v=0
0 Par ch=1 c=91 v=48
0 Par ch=1 c=10 v=51
0 Par ch=1 c=7 v=100
0 Meta TrkName "Piano"
0 On ch=1 n=48 v=54
1440 Off ch=1 n=60 v=0
1440 Off ch=1 n=48 v=0
1440 On ch=1 n=60 v=58
1440 On ch=1 n=43 v=53
2880 Off ch=1 n=60 v=0
2880 Off ch=1 n=43 v=0
2880 On ch=1 n=60 v=62
2880 On ch=1 n=48 v=63
3840 Off ch=1 n=60 v=0
3840 On ch=1 n=62 v=65
4320 Off ch=1 n=62 v=0
4320 Off ch=1 n=48 v=0
4320 On ch=1 n=64 v=67
4320 On ch=1 n=43 v=60
5760 Off ch=1 n=64 v=0
5760 Off ch=1 n=43 v=0
5760 On ch=1 n=64 v=62
5760 On ch=1 n=48 v=61
6720 On ch=1 n=62 v=60
6739 Off ch=1 n=64 v=0
7174 Off ch=1 n=62 v=0
7200 Off ch=1 n=48 v=0
7200 On ch=1 n=64 v=67
7200 On ch=1 n=43 v=61
8160 On ch=1 n=65 v=63
8179 Off ch=1 n=64 v=0
8614 Off ch=1 n=65 v=0
8640 Off ch=1 n=43 v=0
8640 On ch=1 n=67 v=60
8640 On ch=1 n=50 v=62
10080 Off ch=1 n=50 v=0
10080 On ch=1 n=43 v=58
11520 Off ch=1 n=67 v=0
11520 Off ch=1 n=43 v=0
11520 On ch=1 n=72 v=69
11520 On ch=1 n=48 v=63
12000 Off ch=1 n=72 v=0
12000 On ch=1 n=72 v=67
12480 Off ch=1 n=72 v=0
12480 On ch=1 n=72 v=58
12960 Off ch=1 n=72 v=0
12960 Off ch=1 n=48 v=0
12960 On ch=1 n=67 v=56
12960 On ch=1 n=52 v=65
13440 Off ch=1 n=67 v=0
13440 On ch=1 n=67 v=61
13920 Off ch=1 n=67 v=0
13920 On ch=1 n=67 v=56
14400 Off ch=1 n=67 v=0
14400 Off ch=1 n=52 v=0
14400 On ch=1 n=64 v=51
14400 On ch=1 n=55 v=61
14880 Off ch=1 n=64 v=0
14880 On ch=1 n=64 v=63
15360 Off ch=1 n=64 v=0
15360 On ch=1 n=64 v=57
15840 Off ch=1 n=64 v=0
15840 Off ch=1 n=55 v=0
15840 On ch=1 n=60 v=51
15840 On ch=1 n=58 v=64
16320 Off ch=1 n=60 v=0
16320 On ch=1 n=60 v=61
16800 Off ch=1 n=60 v=0
16800 On ch=1 n=60 v=61
17280 Off ch=1 n=60 v=0
17280 Off ch=1 n=58 v=0
17280 On ch=1 n=67 v=72
17280 On ch=1 n=57 v=63
18240 On ch=1 n=65 v=57
18259 Off ch=1 n=67 v=0
18694 Off ch=1 n=65 v=0
18720 Off ch=1 n=57 v=0
18720 On ch=1 n=64 v=59
18720 On ch=1 n=59 v=61
19680 On ch=1 n=62 v=58
19699 Off ch=1 n=64 v=0
20134 Off ch=1 n=62 v=0
20160 Off ch=1 n=59 v=0
20160 On ch=1 n=60 v=57
20160 On ch=1 n=60 v=63
21600 Off ch=1 n=60 v=0
21600 On ch=1 n=48 v=52
23040 Off ch=1 n=60 v=0
23040 Off ch=1 n=48 v=0
26880 On ch=1 n=60 v=60
26880 On ch=1 n=48 v=61
28320 Off ch=1 n=60 v=0
28320 Off ch=1 n=48 v=0
28320 On ch=1 n=60 v=59
28320 On ch=1 n=43 v=59
29760 Off ch=1 n=60 v=0
29760 Off ch=1 n=43 v=0
29760 On ch=1 n=60 v=63
29760 On ch=1 n=48 v=64
30720 Off ch=1 n=60 v=0
30720 On ch=1 n=62 v=62
31200 Off ch=1 n=62 v=0
31200 Off ch=1 n=48 v=0
31200 On ch=1 n=64 v=60
31200 On ch=1 n=43 v=55
32640 Off ch=1 n=64 v=0
32640 Off ch=1 n=43 v=0
32640 On ch=1 n=64 v=62
32640 On ch=1 n=48 v=63
33600 On ch=1 n=62 v=59
33619 Off ch=1 n=64 v=0
34054 Off ch=1 n=62 v=0
34080 Off ch=1 n=48 v=0
34080 On ch=1 n=64 v=61
34080 On ch=1 n=43 v=57
35040 On ch=1 n=65 v=64
35059 Off ch=1 n=64 v=0
35494 Off ch=1 n=65 v=0
35520 Off ch=1 n=43 v=0
35520 On ch=1 n=67 v=69
35520 On ch=1 n=48 v=62
36960 Off ch=1 n=48 v=0
36960 On ch=1 n=43 v=59
38400 Off ch=1 n=67 v=0
38400 Off ch=1 n=43 v=0
38400 On ch=1 n=72 v=70
38400 On ch=1 n=48 v=57
38880 Off ch=1 n=72 v=0
38880 On ch=1 n=72 v=60
39360 Off ch=1 n=72 v=0
39360 On ch=1 n=72 v=62
39840 Off ch=1 n=72 v=0
39840 Off ch=1 n=48 v=0
39840 On ch=1 n=67 v=50
39840 On ch=1 n=52 v=68
40320 Off ch=1 n=67 v=0
40320 On ch=1 n=67 v=60
40800 Off ch=1 n=67 v=0
40800 On ch=1 n=67 v=57
41280 Off ch=1 n=67 v=0
41280 Off ch=1 n=52 v=0
41280 On ch=1 n=64 v=52
41280 On ch=1 n=55 v=65
41760 Off ch=1 n=64 v=0
41760 On ch=1 n=64 v=59
42240 Off ch=1 n=64 v=0
42240 On ch=1 n=64 v=58
42720 Off ch=1 n=64 v=0
42720 Off ch=1 n=55 v=0
42720 On ch=1 n=60 v=57
42720 On ch=1 n=52 v=64
43200 Off ch=1 n=60 v=0
43200 On ch=1 n=60 v=57
43680 Off ch=1 n=60 v=0
43680 On ch=1 n=60 v=62
44160 Off ch=1 n=60 v=0
44160 Off ch=1 n=52 v=0
44160 On ch=1 n=67 v=71
44160 On ch=1 n=48 v=55
45120 On ch=1 n=65 v=61
45139 Off ch=1 n=67 v=0
45574 Off ch=1 n=65 v=0
45600 Off ch=1 n=48 v=0
45600 On ch=1 n=64 v=61
45600 On ch=1 n=43 v=58
46560 On ch=1 n=62 v=54
46579 Off ch=1 n=64 v=0
47014 Off ch=1 n=62 v=0
47040 Off ch=1 n=43 v=0
47040 On ch=1 n=60 v=57
47040 On ch=1 n=48 v=63
48480 Off ch=1 n=48 v=0
48480 On ch=1 n=43 v=58
49920 Off ch=1 n=60 v=0
49920 Off ch=1 n=43 v=0
49921 Meta TrkEnd
TrkEnd