MFile 1 2 256
MTrk
0 TimeSig 4/4 24 8
0 KeySig 0 major
768 Tempo 352940
32768 TimeSig 3/4 24 8
32769 Meta TrkEnd
TrkEnd
MTrk
768 PrCh ch=1 p=0
768 Par ch=1 c=121 v=0
768 Par ch=1 c=64 v=0
768 Par ch=1 c=91 v=48
768 Par ch=1 c=10 v=51
768 Par ch=1 c=7 v=100
768 Par ch=1 c=121 v=0
768 Par ch=1 c=64 v=0
768 Par ch=1 c=91 v=48
768 Par ch=1 c=10 v=51
768 Par ch=1 c=7 v=100
768 Meta TrkName "Piano"
768 On ch=1 n=55 v=84
1024 Off ch=1 n=55 v=0
1024 On ch=1 n=55 v=96
1280 On ch=1 n=64 v=89
1536 Off ch=1 n=64 v=0
1536 On ch=1 n=62 v=90
1792 Off ch=1 n=62 v=0
1792 On ch=1 n=60 v=93
2048 Off ch=1 n=60 v=0
2048 Off ch=1 n=55 v=0
2048 On ch=1 n=55 v=96
2816 Off ch=1 n=55 v=0
2816 On ch=1 n=55 v=102
3072 Off ch=1 n=55 v=0
3072 On ch=1 n=55 v=99
3328 On ch=1 n=64 v=90
3584 Off ch=1 n=64 v=0
3584 On ch=1 n=62 v=88
3840 Off ch=1 n=62 v=0
3840 On ch=1 n=60 v=94
4096 Off ch=1 n=60 v=0
4096 Off ch=1 n=55 v=0
4096 On ch=1 n=57 v=102
4864 Off ch=1 n=57 v=0
4864 On ch=1 n=57 v=96
5120 Off ch=1 n=57 v=0
5120 On ch=1 n=57 v=97
5376 On ch=1 n=65 v=94
5632 Off ch=1 n=65 v=0
5632 On ch=1 n=64 v=95
5888 Off ch=1 n=64 v=0
5888 On ch=1 n=62 v=91
6144 Off ch=1 n=62 v=0
6144 Off ch=1 n=57 v=0
6144 On ch=1 n=59 v=99
7168 On ch=1 n=67 v=110
7168 Off ch=1 n=59 v=0
7168 On ch=1 n=59 v=101
7424 Off ch=1 n=67 v=0
7424 On ch=1 n=67 v=101
7680 Off ch=1 n=67 v=0
7680 On ch=1 n=65 v=91
7936 Off ch=1 n=65 v=0
7936 On ch=1 n=62 v=90
8192 Off ch=1 n=62 v=0
8192 On ch=1 n=64 v=103
8192 Off ch=1 n=59 v=0
8192 On ch=1 n=60 v=99
8960 Off ch=1 n=64 v=0
8960 Off ch=1 n=60 v=0
8960 On ch=1 n=55 v=91
9216 Off ch=1 n=55 v=0
9216 On ch=1 n=55 v=89
9472 On ch=1 n=64 v=90
9728 Off ch=1 n=64 v=0
9728 On ch=1 n=62 v=90
9984 Off ch=1 n=62 v=0
9984 On ch=1 n=60 v=87
10240 Off ch=1 n=60 v=0
10240 Off ch=1 n=55 v=0
10240 On ch=1 n=55 v=99
11008 Off ch=1 n=55 v=0
11008 On ch=1 n=55 v=97
11264 Off ch=1 n=55 v=0
11264 On ch=1 n=55 v=98
11520 On ch=1 n=64 v=90
11776 Off ch=1 n=64 v=0
11776 On ch=1 n=62 v=89
12032 Off ch=1 n=62 v=0
12032 On ch=1 n=60 v=89
12288 Off ch=1 n=60 v=0
12288 Off ch=1 n=55 v=0
12288 On ch=1 n=57 v=101
13056 Off ch=1 n=57 v=0
13056 On ch=1 n=57 v=97
13312 Off ch=1 n=57 v=0
13312 On ch=1 n=57 v=100
13568 On ch=1 n=65 v=88
13824 Off ch=1 n=65 v=0
13824 On ch=1 n=64 v=94
14080 Off ch=1 n=64 v=0
14080 On ch=1 n=62 v=88
14336 Off ch=1 n=62 v=0
14336 On ch=1 n=67 v=111
14336 Off ch=1 n=57 v=0
14336 On ch=1 n=59 v=101
14592 Off ch=1 n=67 v=0
14592 On ch=1 n=67 v=104
14848 Off ch=1 n=67 v=0
14848 On ch=1 n=67 v=99
15104 Off ch=1 n=67 v=0
15104 On ch=1 n=67 v=101
15360 Off ch=1 n=67 v=0
15360 On ch=1 n=69 v=111
15360 Off ch=1 n=59 v=0
15360 On ch=1 n=59 v=103
15616 Off ch=1 n=69 v=0
15616 On ch=1 n=67 v=100
15872 Off ch=1 n=67 v=0
15872 On ch=1 n=65 v=101
16128 Off ch=1 n=65 v=0
16128 On ch=1 n=62 v=91
16384 Off ch=1 n=62 v=0
16384 Off ch=1 n=59 v=0
16384 On ch=1 n=60 v=113
16896 On ch=1 n=67 v=107
16896 Off ch=1 n=60 v=0
17408 Off ch=1 n=67 v=0
17408 On ch=1 n=64 v=104
17408 On ch=1 n=60 v=103
17664 Off ch=1 n=64 v=0
17664 On ch=1 n=64 v=112
17920 Off ch=1 n=64 v=0
17920 On ch=1 n=64 v=109
17920 Off ch=1 n=60 v=0
17920 On ch=1 n=55 v=106
18432 Off ch=1 n=64 v=0
18432 On ch=1 n=64 v=114
18432 Off ch=1 n=55 v=0
18432 On ch=1 n=60 v=127
18688 Off ch=1 n=64 v=0
18688 On ch=1 n=64 v=115
18944 Off ch=1 n=64 v=0
18944 On ch=1 n=64 v=114
18944 Off ch=1 n=60 v=0
18944 On ch=1 n=55 v=114
19456 Off ch=1 n=64 v=0
19456 On ch=1 n=64 v=114
19456 Off ch=1 n=55 v=0
19456 On ch=1 n=60 v=127
19712 Off ch=1 n=64 v=0
19712 On ch=1 n=67 v=121
19968 Off ch=1 n=67 v=0
19968 On ch=1 n=60 v=96
19968 Off ch=1 n=60 v=0
19968 On ch=1 n=55 v=110
20224 Off ch=1 n=60 v=0
20224 On ch=1 n=62 v=115
20480 Off ch=1 n=62 v=0
20480 On ch=1 n=64 v=115
20480 Off ch=1 n=55 v=0
20480 On ch=1 n=60 v=127
20992 Off ch=1 n=60 v=0
20992 On ch=1 n=55 v=104
21504 Off ch=1 n=64 v=0
21504 On ch=1 n=65 v=117
21504 Off ch=1 n=55 v=0
21504 On ch=1 n=59 v=121
21760 Off ch=1 n=65 v=0
21760 On ch=1 n=65 v=111
22016 Off ch=1 n=65 v=0
22016 On ch=1 n=65 v=111
22016 Off ch=1 n=59 v=0
22016 On ch=1 n=55 v=106
22272 Off ch=1 n=65 v=0
22272 On ch=1 n=65 v=113
22528 Off ch=1 n=65 v=0
22528 On ch=1 n=65 v=115
22528 Off ch=1 n=55 v=0
22528 On ch=1 n=60 v=120
22784 On ch=1 n=64 v=106
22789 Off ch=1 n=65 v=0
23027 Off ch=1 n=64 v=0
23040 On ch=1 n=64 v=116
23040 Off ch=1 n=60 v=0
23040 On ch=1 n=55 v=109
23296 Off ch=1 n=64 v=0
23296 On ch=1 n=64 v=118
23552 Off ch=1 n=64 v=0
23552 On ch=1 n=64 v=118
23552 Off ch=1 n=55 v=0
23552 On ch=1 n=54 v=109
23808 On ch=1 n=62 v=112
23813 Off ch=1 n=64 v=0
24051 Off ch=1 n=62 v=0
24064 On ch=1 n=62 v=111
24320 Off ch=1 n=62 v=0
24320 On ch=1 n=64 v=119
24576 Off ch=1 n=64 v=0
24576 On ch=1 n=62 v=108
24576 Off ch=1 n=54 v=0
24576 On ch=1 n=55 v=117
25088 Off ch=1 n=62 v=0
25088 On ch=1 n=67 v=127
25600 Off ch=1 n=67 v=0
25600 On ch=1 n=64 v=109
25600 Off ch=1 n=55 v=0
25600 On ch=1 n=60 v=127
25856 Off ch=1 n=64 v=0
25856 On ch=1 n=64 v=108
26112 Off ch=1 n=64 v=0
26112 On ch=1 n=64 v=112
26112 Off ch=1 n=60 v=0
26112 On ch=1 n=55 v=110
26624 Off ch=1 n=64 v=0
26624 On ch=1 n=64 v=111
26624 Off ch=1 n=55 v=0
26624 On ch=1 n=60 v=127
26880 Off ch=1 n=64 v=0
26880 On ch=1 n=64 v=113
27136 Off ch=1 n=64 v=0
27136 On ch=1 n=64 v=108
27136 Off ch=1 n=60 v=0
27136 On ch=1 n=55 v=110
27648 Off ch=1 n=64 v=0
27648 On ch=1 n=64 v=115
27648 Off ch=1 n=55 v=0
27648 On ch=1 n=60 v=127
27904 Off ch=1 n=64 v=0
27904 On ch=1 n=67 v=126
28160 Off ch=1 n=67 v=0
28160 On ch=1 n=60 v=92
28160 Off ch=1 n=60 v=0
28160 On ch=1 n=55 v=109
28416 Off ch=1 n=60 v=0
28416 On ch=1 n=62 v=119
28672 Off ch=1 n=62 v=0
28672 On ch=1 n=64 v=122
28672 Off ch=1 n=55 v=0
28672 On ch=1 n=60 v=126
29184 Off ch=1 n=60 v=0
29184 On ch=1 n=55 v=108
29696 Off ch=1 n=64 v=0
29696 On ch=1 n=65 v=118
29696 Off ch=1 n=55 v=0
29696 On ch=1 n=59 v=119
29952 Off ch=1 n=65 v=0
29952 On ch=1 n=65 v=115
30208 Off ch=1 n=65 v=0
30208 On ch=1 n=65 v=110
30208 Off ch=1 n=59 v=0
30208 On ch=1 n=55 v=110
30464 Off ch=1 n=65 v=0
30464 On ch=1 n=65 v=112
30720 Off ch=1 n=65 v=0
30720 On ch=1 n=65 v=107
30720 Off ch=1 n=55 v=0
30720 On ch=1 n=60 v=127
30976 On ch=1 n=64 v=103
30981 Off ch=1 n=65 v=0
31219 Off ch=1 n=64 v=0
31232 On ch=1 n=64 v=112
31232 Off ch=1 n=60 v=0
31232 On ch=1 n=55 v=107
31488 Off ch=1 n=64 v=0
31488 On ch=1 n=64 v=111
31744 Off ch=1 n=64 v=0
31744 On ch=1 n=67 v=122
31744 Off ch=1 n=55 v=0
31744 On ch=1 n=55 v=118
32000 Off ch=1 n=67 v=0
32000 On ch=1 n=67 v=113
32000 Off ch=1 n=55 v=0
32000 On ch=1 n=55 v=113
32256 Off ch=1 n=67 v=0
32256 On ch=1 n=65 v=111
32256 Off ch=1 n=55 v=0
32256 On ch=1 n=57 v=115
32512 On ch=1 n=62 v=99
32512 Off ch=1 n=57 v=0
32512 On ch=1 n=59 v=117
32517 Off ch=1 n=65 v=0
32755 Off ch=1 n=62 v=0
32768 On ch=1 n=60 v=103
32768 Off ch=1 n=59 v=0
32768 On ch=1 n=60 v=117
33536 Off ch=1 n=60 v=0
33536 Off ch=1 n=60 v=0
33537 Meta TrkEnd
TrkEnd