
0 On ch=1 n=62 v=80
0 On ch=1 n=70 v=80
0 On ch=1 n=74 v=80
1367 On ch=1 n=62 v=0
1367 On ch=1 n=70 v=0
1367 On ch=1 n=74 v=0
1440 On ch=1 n=65 v=80
1440 On ch=1 n=70 v=80
1440 On ch=1 n=74 v=80
1440 On ch=1 n=77 v=80
2807 On ch=1 n=65 v=0
2807 On ch=1 n=70 v=0
2807 On ch=1 n=74 v=0
2807 On ch=1 n=77 v=0
2880 On ch=1 n=63 v=80
2880 On ch=1 n=67 v=80
2880 On ch=1 n=70 v=80
2880 On ch=1 n=75 v=80
4247 On ch=1 n=63 v=0
4247 On ch=1 n=67 v=0
4247 On ch=1 n=70 v=0
4247 On ch=1 n=75 v=0
4320 On ch=1 n=63 v=80
4383 On ch=1 n=69 v=80
4446 On ch=1 n=72 v=80
4511 On ch=1 n=77 v=80
5758 On ch=1 n=69 v=0
5758 On ch=1 n=72 v=0
5758 On ch=1 n=77 v=0
5759 On ch=1 n=63 v=0
5760 On ch=1 n=62 v=80
6240 On ch=1 n=58 v=80
6671 On ch=1 n=62 v=0
6720 On ch=1 n=65 v=80
7151 On ch=1 n=58 v=0
7175 On ch=1 n=65 v=0
7200 On ch=1 n=72 v=80
7680 On ch=1 n=63 v=80
7680 On ch=1 n=65 v=80
8135 On ch=1 n=63 v=0
8135 On ch=1 n=65 v=0
8160 On ch=1 n=63 v=80
8160 On ch=1 n=65 v=80
8567 On ch=1 n=72 v=0
8615 On ch=1 n=63 v=0
8615 On ch=1 n=65 v=0
8640 On ch=1 n=70 v=80
9120 On ch=1 n=58 v=80
9551 On ch=1 n=70 v=0
9600 On ch=1 n=65 v=80
10031 On ch=1 n=58 v=0
10055 On ch=1 n=65 v=0
10080 On ch=1 n=63 v=80
10560 On ch=1 n=51 v=80
11015 On ch=1 n=51 v=0
11040 On ch=1 n=58 v=80
11447 On ch=1 n=63 v=0
11495 On ch=1 n=58 v=0
11520 On ch=1 n=62 v=80
12000 On ch=1 n=53 v=80
12000 On ch=1 n=58 v=80
12431 On ch=1 n=62 v=0
12480 On ch=1 n=62 v=80
12911 On ch=1 n=53 v=0
12911 On ch=1 n=58 v=0
12935 On ch=1 n=62 v=0
12960 On ch=1 n=53 v=80
12960 On ch=1 n=58 v=80
12960 On ch=1 n=62 v=80
13415 On ch=1 n=62 v=0
13440 On ch=1 n=63 v=80
13895 On ch=1 n=63 v=0
13920 On ch=1 n=65 v=80
14327 On ch=1 n=53 v=0
14327 On ch=1 n=58 v=0
14375 On ch=1 n=65 v=0
14400 On ch=1 n=67 v=80
14880 On ch=1 n=58 v=80
14880 On ch=1 n=63 v=80
15335 On ch=1 n=58 v=0
15335 On ch=1 n=63 v=0
15360 On ch=1 n=58 v=80
15360 On ch=1 n=63 v=80
15767 On ch=1 n=67 v=0
15815 On ch=1 n=58 v=0
15815 On ch=1 n=63 v=0
15840 On ch=1 n=65 v=80
16320 On ch=1 n=57 v=80
16320 On ch=1 n=63 v=80
16775 On ch=1 n=57 v=0
16775 On ch=1 n=63 v=0
16800 On ch=1 n=57 v=80
16800 On ch=1 n=63 v=80
17207 On ch=1 n=65 v=0
17255 On ch=1 n=57 v=0
17255 On ch=1 n=63 v=0
17280 On ch=1 n=62 v=80
17760 On ch=1 n=58 v=80
18191 On ch=1 n=62 v=0
18240 On ch=1 n=65 v=80
18671 On ch=1 n=58 v=0
18695 On ch=1 n=65 v=0
18720 On ch=1 n=72 v=80
19200 On ch=1 n=63 v=80
19200 On ch=1 n=65 v=80
19655 On ch=1 n=63 v=0
19655 On ch=1 n=65 v=0
19680 On ch=1 n=63 v=80
19680 On ch=1 n=65 v=80
20087 On ch=1 n=72 v=0
20135 On ch=1 n=63 v=0
20135 On ch=1 n=65 v=0
20160 On ch=1 n=70 v=80
20640 On ch=1 n=58 v=80
21071 On ch=1 n=70 v=0
21120 On ch=1 n=65 v=80
21551 On ch=1 n=58 v=0
21575 On ch=1 n=65 v=0
21600 On ch=1 n=63 v=80
22080 On ch=1 n=51 v=80
22535 On ch=1 n=51 v=0
22560 On ch=1 n=58 v=80
22967 On ch=1 n=63 v=0
23015 On ch=1 n=58 v=0
23040 On ch=1 n=62 v=80
23520 On ch=1 n=58 v=80
23951 On ch=1 n=62 v=0
24000 On ch=1 n=65 v=80
24431 On ch=1 n=58 v=0
24455 On ch=1 n=65 v=0
24480 On ch=1 n=57 v=80
24480 On ch=1 n=63 v=80
24480 On ch=1 n=65 v=80
24935 On ch=1 n=65 v=0
24960 On ch=1 n=67 v=80
25415 On ch=1 n=67 v=0
25440 On ch=1 n=69 v=80
25847 On ch=1 n=57 v=0
25847 On ch=1 n=63 v=0
25895 On ch=1 n=69 v=0
25920 On ch=1 n=70 v=80
26400 On ch=1 n=58 v=80
26400 On ch=1 n=62 v=80
26400 On ch=1 n=65 v=80
26855 On ch=1 n=58 v=0
26855 On ch=1 n=62 v=0
26855 On ch=1 n=65 v=0
26880 On ch=1 n=58 v=80
26880 On ch=1 n=62 v=80
26880 On ch=1 n=65 v=80
27287 On ch=1 n=70 v=0
27335 On ch=1 n=58 v=0
27335 On ch=1 n=62 v=0
27335 On ch=1 n=65 v=0
27360 On ch=1 n=70 v=80
27840 On ch=1 n=58 v=80
27840 On ch=1 n=62 v=80
27840 On ch=1 n=65 v=80
28295 On ch=1 n=58 v=0
28295 On ch=1 n=62 v=0
28295 On ch=1 n=65 v=0
28320 On ch=1 n=58 v=80
28320 On ch=1 n=62 v=80
28320 On ch=1 n=65 v=80
28727 On ch=1 n=70 v=0
28775 On ch=1 n=58 v=0
28775 On ch=1 n=62 v=0
28775 On ch=1 n=65 v=0
28800 On ch=1 n=63 v=96
28800 On ch=1 n=65 v=96
28800 On ch=1 n=72 v=96
29039 On ch=1 n=63 v=0
29039 On ch=1 n=65 v=0
29039 On ch=1 n=72 v=0
29520 On ch=1 n=60 v=80
29520 On ch=1 n=63 v=80
29520 On ch=1 n=65 v=80
29747 On ch=1 n=60 v=0
29747 On ch=1 n=63 v=0
29747 On ch=1 n=65 v=0
29760 On ch=1 n=60 v=80
29760 On ch=1 n=63 v=80
29760 On ch=1 n=65 v=80
30215 On ch=1 n=60 v=0
30215 On ch=1 n=63 v=0
30215 On ch=1 n=65 v=0
30240 On ch=1 n=57 v=80
30240 On ch=1 n=63 v=80
30240 On ch=1 n=69 v=80
30695 On ch=1 n=69 v=0
30720 On ch=1 n=67 v=80
31175 On ch=1 n=67 v=0
31200 On ch=1 n=65 v=80
31607 On ch=1 n=57 v=0
31607 On ch=1 n=63 v=0
31655 On ch=1 n=65 v=0
31680 On ch=1 n=62 v=80
32160 On ch=1 n=58 v=80
32591 On ch=1 n=62 v=0
32640 On ch=1 n=65 v=80
33071 On ch=1 n=58 v=0
33095 On ch=1 n=65 v=0
33120 On ch=1 n=70 v=80
33600 On ch=1 n=58 v=80
33600 On ch=1 n=62 v=80
33600 On ch=1 n=65 v=80
34055 On ch=1 n=58 v=0
34055 On ch=1 n=62 v=0
34055 On ch=1 n=65 v=0
34080 On ch=1 n=58 v=80
34080 On ch=1 n=62 v=80
34080 On ch=1 n=65 v=80
34487 On ch=1 n=70 v=0
34535 On ch=1 n=58 v=0
34535 On ch=1 n=62 v=0
34535 On ch=1 n=65 v=0
34560 On ch=1 n=67 v=80
35040 On ch=1 n=58 v=80
35040 On ch=1 n=63 v=80
35471 On ch=1 n=67 v=0
35520 On ch=1 n=70 v=80
35951 On ch=1 n=58 v=0
35951 On ch=1 n=63 v=0
35975 On ch=1 n=70 v=0
36000 On ch=1 n=72 v=80
36480 On ch=1 n=60 v=80
36480 On ch=1 n=67 v=80
36911 On ch=1 n=72 v=0
36960 On ch=1 n=70 v=80
37391 On ch=1 n=60 v=0
37391 On ch=1 n=67 v=0
37415 On ch=1 n=70 v=0
37440 On ch=1 n=69 v=80
37920 On ch=1 n=60 v=80
37920 On ch=1 n=65 v=80
38375 On ch=1 n=60 v=0
38375 On ch=1 n=65 v=0
38400 On ch=1 n=60 v=80
38400 On ch=1 n=65 v=80
38807 On ch=1 n=69 v=0
38855 On ch=1 n=60 v=0
38855 On ch=1 n=65 v=0
38880 On ch=1 n=65 v=80
39360 On ch=1 n=57 v=80
39360 On ch=1 n=63 v=80
39815 On ch=1 n=57 v=0
39815 On ch=1 n=63 v=0
39840 On ch=1 n=57 v=80
39840 On ch=1 n=63 v=80
40247 On ch=1 n=65 v=0
40295 On ch=1 n=57 v=0
40295 On ch=1 n=63 v=0
40320 On ch=1 n=62 v=80
40800 On ch=1 n=58 v=80
41231 On ch=1 n=62 v=0
41280 On ch=1 n=65 v=80
41711 On ch=1 n=58 v=0
41735 On ch=1 n=65 v=0
41760 On ch=1 n=72 v=80
42240 On ch=1 n=60 v=80
42240 On ch=1 n=62 v=80
42240 On ch=1 n=65 v=80
42695 On ch=1 n=60 v=0
42695 On ch=1 n=62 v=0
42695 On ch=1 n=65 v=0
42720 On ch=1 n=60 v=80
42720 On ch=1 n=62 v=80
42720 On ch=1 n=65 v=80
43127 On ch=1 n=72 v=0
43175 On ch=1 n=60 v=0
43175 On ch=1 n=62 v=0
43175 On ch=1 n=65 v=0
43200 On ch=1 n=70 v=80
43680 On ch=1 n=58 v=80
44111 On ch=1 n=70 v=0
44160 On ch=1 n=65 v=80
44591 On ch=1 n=58 v=0
44615 On ch=1 n=65 v=0
44640 On ch=1 n=63 v=80
45120 On ch=1 n=58 v=80
45575 On ch=1 n=58 v=0
45600 On ch=1 n=58 v=80
46007 On ch=1 n=63 v=0
46055 On ch=1 n=58 v=0
46080 On ch=1 n=62 v=80
46560 On ch=1 n=58 v=80
46991 On ch=1 n=62 v=0
47040 On ch=1 n=65 v=80
47471 On ch=1 n=58 v=0
47495 On ch=1 n=65 v=0
47520 On ch=1 n=57 v=80
47520 On ch=1 n=63 v=80
47520 On ch=1 n=65 v=80
47975 On ch=1 n=65 v=0
48000 On ch=1 n=67 v=80
48455 On ch=1 n=67 v=0
48480 On ch=1 n=69 v=80
48887 On ch=1 n=57 v=0
48887 On ch=1 n=63 v=0
48935 On ch=1 n=69 v=0
48960 On ch=1 n=70 v=80
49440 On ch=1 n=58 v=80
49440 On ch=1 n=62 v=80
49895 On ch=1 n=58 v=0
49895 On ch=1 n=62 v=0
49920 On ch=1 n=58 v=80
49920 On ch=1 n=62 v=80
50327 On ch=1 n=70 v=0
50375 On ch=1 n=58 v=0
50375 On ch=1 n=62 v=0
50400 On ch=1 n=70 v=80
50880 On ch=1 n=58 v=80
50880 On ch=1 n=62 v=80
51311 On ch=1 n=70 v=0
51335 On ch=1 n=58 v=0
51335 On ch=1 n=62 v=0
51360 On ch=1 n=58 v=80
51360 On ch=1 n=62 v=80
51815 On ch=1 n=58 v=0
51815 On ch=1 n=62 v=0
51840 On ch=1 n=62 v=80
52320 On ch=1 n=58 v=80
52751 On ch=1 n=62 v=0
52800 On ch=1 n=65 v=80
53231 On ch=1 n=58 v=0
53255 On ch=1 n=65 v=0
53280 On ch=1 n=72 v=80
53760 On ch=1 n=63 v=80
53760 On ch=1 n=65 v=80
54215 On ch=1 n=63 v=0
54215 On ch=1 n=65 v=0
54240 On ch=1 n=63 v=80
54240 On ch=1 n=65 v=80
54647 On ch=1 n=72 v=0
54695 On ch=1 n=63 v=0
54695 On ch=1 n=65 v=0
54720 On ch=1 n=70 v=80
55200 On ch=1 n=58 v=80
55631 On ch=1 n=70 v=0
55680 On ch=1 n=65 v=80
56111 On ch=1 n=58 v=0
56135 On ch=1 n=65 v=0
56160 On ch=1 n=63 v=80
56640 On ch=1 n=51 v=80
57095 On ch=1 n=51 v=0
57120 On ch=1 n=58 v=80
57527 On ch=1 n=63 v=0
57575 On ch=1 n=58 v=0
57600 On ch=1 n=62 v=80
58080 On ch=1 n=53 v=80
58080 On ch=1 n=58 v=80
58511 On ch=1 n=62 v=0
58560 On ch=1 n=62 v=80
58991 On ch=1 n=53 v=0
58991 On ch=1 n=58 v=0
59015 On ch=1 n=62 v=0
59040 On ch=1 n=53 v=80
59040 On ch=1 n=58 v=80
59040 On ch=1 n=62 v=80
59495 On ch=1 n=62 v=0
59520 On ch=1 n=63 v=80
59975 On ch=1 n=63 v=0
60000 On ch=1 n=65 v=80
60407 On ch=1 n=53 v=0
60407 On ch=1 n=58 v=0
60455 On ch=1 n=65 v=0
60480 On ch=1 n=67 v=80
60960 On ch=1 n=58 v=80
60960 On ch=1 n=63 v=80
61415 On ch=1 n=58 v=0
61415 On ch=1 n=63 v=0
61440 On ch=1 n=58 v=80
61440 On ch=1 n=63 v=80
61847 On ch=1 n=67 v=0
61895 On ch=1 n=58 v=0
61895 On ch=1 n=63 v=0
61920 On ch=1 n=65 v=80
62400 On ch=1 n=57 v=80
62400 On ch=1 n=63 v=80
62855 On ch=1 n=57 v=0
62855 On ch=1 n=63 v=0
62880 On ch=1 n=57 v=80
62880 On ch=1 n=63 v=80
63287 On ch=1 n=65 v=0
63335 On ch=1 n=57 v=0
63335 On ch=1 n=63 v=0
63360 On ch=1 n=62 v=80
63840 On ch=1 n=58 v=80
64271 On ch=1 n=62 v=0
64320 On ch=1 n=65 v=80
64751 On ch=1 n=58 v=0
64775 On ch=1 n=65 v=0
64800 On ch=1 n=72 v=80
65280 On ch=1 n=63 v=80
65280 On ch=1 n=65 v=80
65735 On ch=1 n=63 v=0
65735 On ch=1 n=65 v=0
65760 On ch=1 n=63 v=80
65760 On ch=1 n=65 v=80
66167 On ch=1 n=72 v=0
66215 On ch=1 n=63 v=0
66215 On ch=1 n=65 v=0
66240 On ch=1 n=70 v=80
66720 On ch=1 n=58 v=80
67151 On ch=1 n=70 v=0
67200 On ch=1 n=65 v=80
67631 On ch=1 n=58 v=0
67655 On ch=1 n=65 v=0
67680 On ch=1 n=63 v=80
68160 On ch=1 n=51 v=80
68615 On ch=1 n=51 v=0
68640 On ch=1 n=58 v=80
69047 On ch=1 n=63 v=0
69095 On ch=1 n=58 v=0
69120 On ch=1 n=62 v=80
69600 On ch=1 n=58 v=80
70031 On ch=1 n=62 v=0
70080 On ch=1 n=65 v=80
70511 On ch=1 n=58 v=0
70535 On ch=1 n=65 v=0
70560 On ch=1 n=57 v=80
70560 On ch=1 n=63 v=80
70560 On ch=1 n=65 v=80
71015 On ch=1 n=65 v=0
71040 On ch=1 n=67 v=80
71495 On ch=1 n=67 v=0
71520 On ch=1 n=69 v=80
71927 On ch=1 n=57 v=0
71927 On ch=1 n=63 v=0
71975 On ch=1 n=69 v=0
72000 On ch=1 n=70 v=80
72480 On ch=1 n=58 v=80
72480 On ch=1 n=62 v=80
72480 On ch=1 n=65 v=80
72935 On ch=1 n=58 v=0
72935 On ch=1 n=62 v=0
72935 On ch=1 n=65 v=0
72960 On ch=1 n=58 v=80
72960 On ch=1 n=62 v=80
72960 On ch=1 n=65 v=80
73367 On ch=1 n=70 v=0
73415 On ch=1 n=58 v=0
73415 On ch=1 n=62 v=0
73415 On ch=1 n=65 v=0
73440 On ch=1 n=70 v=80
73920 On ch=1 n=58 v=80
73920 On ch=1 n=62 v=80
73920 On ch=1 n=65 v=80
74375 On ch=1 n=58 v=0
74375 On ch=1 n=62 v=0
74375 On ch=1 n=65 v=0
74400 On ch=1 n=58 v=80
74400 On ch=1 n=62 v=80
74400 On ch=1 n=65 v=80
74807 On ch=1 n=70 v=0
74855 On ch=1 n=58 v=0
74855 On ch=1 n=62 v=0
74855 On ch=1 n=65 v=0
74880 On ch=1 n=63 v=96
74880 On ch=1 n=65 v=96
74880 On ch=1 n=72 v=96
75119 On ch=1 n=63 v=0
75119 On ch=1 n=65 v=0
75119 On ch=1 n=72 v=0
75600 On ch=1 n=60 v=80
75600 On ch=1 n=63 v=80
75600 On ch=1 n=65 v=80
75827 On ch=1 n=60 v=0
75827 On ch=1 n=63 v=0
75827 On ch=1 n=65 v=0
75840 On ch=1 n=60 v=80
75840 On ch=1 n=63 v=80
75840 On ch=1 n=65 v=80
76295 On ch=1 n=60 v=0
76295 On ch=1 n=63 v=0
76295 On ch=1 n=65 v=0
76320 On ch=1 n=57 v=80
76320 On ch=1 n=63 v=80
76320 On ch=1 n=69 v=80
76775 On ch=1 n=69 v=0
76800 On ch=1 n=67 v=80
77255 On ch=1 n=67 v=0
77280 On ch=1 n=65 v=80
77687 On ch=1 n=57 v=0
77687 On ch=1 n=63 v=0
77735 On ch=1 n=65 v=0
77760 On ch=1 n=62 v=80
78240 On ch=1 n=58 v=80
78671 On ch=1 n=62 v=0
78720 On ch=1 n=65 v=80
79151 On ch=1 n=58 v=0
79175 On ch=1 n=65 v=0
79200 On ch=1 n=70 v=80
79680 On ch=1 n=58 v=80
79680 On ch=1 n=62 v=80
79680 On ch=1 n=65 v=80
80135 On ch=1 n=58 v=0
80135 On ch=1 n=62 v=0
80135 On ch=1 n=65 v=0
80160 On ch=1 n=58 v=80
80160 On ch=1 n=62 v=80
80160 On ch=1 n=65 v=80
80567 On ch=1 n=70 v=0
80615 On ch=1 n=58 v=0
80615 On ch=1 n=62 v=0
80615 On ch=1 n=65 v=0
80640 On ch=1 n=67 v=80
81120 On ch=1 n=58 v=80
81120 On ch=1 n=63 v=80
81551 On ch=1 n=67 v=0
81600 On ch=1 n=70 v=80
82031 On ch=1 n=58 v=0
82031 On ch=1 n=63 v=0
82055 On ch=1 n=70 v=0
82080 On ch=1 n=72 v=80
82560 On ch=1 n=60 v=80
82560 On ch=1 n=67 v=80
82991 On ch=1 n=72 v=0
83040 On ch=1 n=70 v=80
83471 On ch=1 n=60 v=0
83471 On ch=1 n=67 v=0
83495 On ch=1 n=70 v=0
83520 On ch=1 n=69 v=80
84000 On ch=1 n=60 v=80
84000 On ch=1 n=65 v=80
84455 On ch=1 n=60 v=0
84455 On ch=1 n=65 v=0
84480 On ch=1 n=60 v=80
84480 On ch=1 n=65 v=80
84887 On ch=1 n=69 v=0
84935 On ch=1 n=60 v=0
84935 On ch=1 n=65 v=0
84960 On ch=1 n=65 v=80
85440 On ch=1 n=57 v=80
85440 On ch=1 n=63 v=80
85895 On ch=1 n=57 v=0
85895 On ch=1 n=63 v=0
85920 On ch=1 n=57 v=80
85920 On ch=1 n=63 v=80
86327 On ch=1 n=65 v=0
86375 On ch=1 n=57 v=0
86375 On ch=1 n=63 v=0
86400 On ch=1 n=62 v=80
86880 On ch=1 n=58 v=80
87311 On ch=1 n=62 v=0
87360 On ch=1 n=65 v=80
87791 On ch=1 n=58 v=0
87815 On ch=1 n=65 v=0
87840 On ch=1 n=72 v=80
88320 On ch=1 n=60 v=80
88320 On ch=1 n=62 v=80
88320 On ch=1 n=65 v=80
88775 On ch=1 n=60 v=0
88775 On ch=1 n=62 v=0
88775 On ch=1 n=65 v=0
88800 On ch=1 n=60 v=80
88800 On ch=1 n=62 v=80
88800 On ch=1 n=65 v=80
89207 On ch=1 n=72 v=0
89255 On ch=1 n=60 v=0
89255 On ch=1 n=62 v=0
89255 On ch=1 n=65 v=0
89280 On ch=1 n=70 v=80
89760 On ch=1 n=58 v=80
90191 On ch=1 n=70 v=0
90240 On ch=1 n=65 v=80
90671 On ch=1 n=58 v=0
90695 On ch=1 n=65 v=0
90720 On ch=1 n=63 v=80
91200 On ch=1 n=58 v=80
91655 On ch=1 n=58 v=0
91680 On ch=1 n=58 v=80
92087 On ch=1 n=63 v=0
92135 On ch=1 n=58 v=0
92160 On ch=1 n=62 v=80
92640 On ch=1 n=58 v=80
93071 On ch=1 n=62 v=0
93120 On ch=1 n=65 v=80
93551 On ch=1 n=58 v=0
93575 On ch=1 n=65 v=0
93600 On ch=1 n=57 v=80
93600 On ch=1 n=63 v=80
93600 On ch=1 n=65 v=80
94055 On ch=1 n=65 v=0
94080 On ch=1 n=67 v=80
94535 On ch=1 n=67 v=0
94560 On ch=1 n=69 v=80
94967 On ch=1 n=57 v=0
94967 On ch=1 n=63 v=0
95015 On ch=1 n=69 v=0
95040 On ch=1 n=62 v=80
95103 On ch=1 n=65 v=80
95167 On ch=1 n=70 v=80
95518 On ch=1 n=65 v=0
95518 On ch=1 n=70 v=0
95519 On ch=1 n=62 v=0
95520 On ch=1 n=65 v=80
95583 On ch=1 n=70 v=80
95647 On ch=1 n=74 v=80
95998 On ch=1 n=70 v=0
95998 On ch=1 n=74 v=0
95999 On ch=1 n=65 v=0
96000 On ch=1 n=65 v=80
96063 On ch=1 n=70 v=80
96127 On ch=1 n=77 v=80
96478 On ch=1 n=70 v=0
96478 On ch=1 n=77 v=0
96479 On ch=1 n=65 v=0
96480 On ch=1 n=62 v=80
96543 On ch=1 n=65 v=80
96607 On ch=1 n=70 v=80
96958 On ch=1 n=65 v=0
96958 On ch=1 n=70 v=0
96959 On ch=1 n=62 v=0
96960 On ch=1 n=65 v=80
97023 On ch=1 n=70 v=80
97087 On ch=1 n=74 v=80
97438 On ch=1 n=70 v=0
97438 On ch=1 n=74 v=0
97439 On ch=1 n=65 v=0
97440 On ch=1 n=65 v=80
97503 On ch=1 n=70 v=80
97567 On ch=1 n=77 v=80
97918 On ch=1 n=70 v=0
97918 On ch=1 n=77 v=0
97919 On ch=1 n=65 v=0
98400 On ch=1 n=58 v=80
98463 On ch=1 n=65 v=80
98527 On ch=1 n=70 v=80
98878 On ch=1 n=65 v=0
98878 On ch=1 n=70 v=0
98879 On ch=1 n=58 v=0
98880 On ch=1 n=63 v=80
98943 On ch=1 n=70 v=80
99007 On ch=1 n=77 v=80
99358 On ch=1 n=70 v=0
99358 On ch=1 n=77 v=0
99359 On ch=1 n=63 v=0
99840 On ch=1 n=58 v=80
99903 On ch=1 n=63 v=80
99967 On ch=1 n=70 v=80
100318 On ch=1 n=63 v=0
100318 On ch=1 n=70 v=0
100319 On ch=1 n=58 v=0
100320 On ch=1 n=67 v=80
100383 On ch=1 n=75 v=80
100447 On ch=1 n=79 v=80
100798 On ch=1 n=75 v=0
100798 On ch=1 n=79 v=0
100799 On ch=1 n=67 v=0
100800 On ch=1 n=62 v=80
100863 On ch=1 n=65 v=80
100927 On ch=1 n=70 v=80
100992 On ch=1 n=74 v=80
101278 On ch=1 n=65 v=0
101278 On ch=1 n=70 v=0
101279 On ch=1 n=62 v=0
101279 On ch=1 n=74 v=0
101280 On ch=1 n=65 v=80
101343 On ch=1 n=70 v=80
101407 On ch=1 n=74 v=80
101472 On ch=1 n=77 v=80
101758 On ch=1 n=70 v=0
101758 On ch=1 n=74 v=0
101759 On ch=1 n=65 v=0
101759 On ch=1 n=77 v=0
101760 On ch=1 n=70 v=80
101823 On ch=1 n=74 v=80
101887 On ch=1 n=77 v=80
101952 On ch=1 n=82 v=80
102238 On ch=1 n=74 v=0
102238 On ch=1 n=77 v=0
102239 On ch=1 n=70 v=0
102239 On ch=1 n=82 v=0
102240 On ch=1 n=74 v=80
102303 On ch=1 n=77 v=80
102366 On ch=1 n=82 v=80
102431 On ch=1 n=86 v=80
103678 On ch=1 n=77 v=0
103678 On ch=1 n=82 v=0
103678 On ch=1 n=86 v=0
103679 On ch=1 n=74 v=0
0 On ch=1 n=53 v=80
455 On ch=1 n=53 v=0
480 On ch=1 n=53 v=80
935 On ch=1 n=53 v=0
960 On ch=1 n=53 v=80
1415 On ch=1 n=53 v=0
1440 On ch=1 n=53 v=80
1895 On ch=1 n=53 v=0
1920 On ch=1 n=53 v=80
2375 On ch=1 n=53 v=0
2400 On ch=1 n=53 v=80
2855 On ch=1 n=53 v=0
2880 On ch=1 n=53 v=80
3335 On ch=1 n=53 v=0
3360 On ch=1 n=53 v=80
3815 On ch=1 n=53 v=0
3840 On ch=1 n=53 v=80
4295 On ch=1 n=53 v=0
4320 On ch=1 n=53 v=80
4775 On ch=1 n=53 v=0
4800 On ch=1 n=53 v=80
5255 On ch=1 n=53 v=0
5280 On ch=1 n=53 v=80
5735 On ch=1 n=53 v=0
5760 On ch=1 n=46 v=80
6240 On ch=1 n=53 v=80
7127 On ch=1 n=46 v=0
7151 On ch=1 n=53 v=0
7200 On ch=1 n=45 v=80
7680 On ch=1 n=53 v=80
8567 On ch=1 n=45 v=0
8591 On ch=1 n=53 v=0
8640 On ch=1 n=50 v=80
9120 On ch=1 n=53 v=80
10007 On ch=1 n=50 v=0
10031 On ch=1 n=53 v=0
10080 On ch=1 n=43 v=80
11447 On ch=1 n=43 v=0
11520 On ch=1 n=41 v=80
12887 On ch=1 n=41 v=0
12960 On ch=1 n=43 v=80
14327 On ch=1 n=43 v=0
14400 On ch=1 n=36 v=80
14400 On ch=1 n=48 v=80
15767 On ch=1 n=36 v=0
15767 On ch=1 n=48 v=0
15840 On ch=1 n=41 v=80
16320 On ch=1 n=53 v=80
16775 On ch=1 n=53 v=0
16800 On ch=1 n=48 v=80
17207 On ch=1 n=41 v=0
17255 On ch=1 n=48 v=0
17280 On ch=1 n=46 v=80
17760 On ch=1 n=53 v=80
18647 On ch=1 n=46 v=0
18671 On ch=1 n=53 v=0
18720 On ch=1 n=45 v=80
19200 On ch=1 n=53 v=80
20087 On ch=1 n=45 v=0
20111 On ch=1 n=53 v=0
20160 On ch=1 n=50 v=80
20640 On ch=1 n=53 v=80
21527 On ch=1 n=50 v=0
21551 On ch=1 n=53 v=0
21600 On ch=1 n=43 v=80
22967 On ch=1 n=43 v=0
23040 On ch=1 n=41 v=80
23520 On ch=1 n=50 v=80
24407 On ch=1 n=41 v=0
24431 On ch=1 n=50 v=0
24480 On ch=1 n=41 v=80
24480 On ch=1 n=53 v=80
25847 On ch=1 n=41 v=0
25847 On ch=1 n=53 v=0
25920 On ch=1 n=46 v=80
26400 On ch=1 n=53 v=80
27287 On ch=1 n=46 v=0
27311 On ch=1 n=53 v=0
27360 On ch=1 n=41 v=80
27840 On ch=1 n=53 v=80
28727 On ch=1 n=41 v=0
28751 On ch=1 n=53 v=0
28800 On ch=1 n=45 v=80
29255 On ch=1 n=45 v=0
29280 On ch=1 n=53 v=80
29735 On ch=1 n=53 v=0
30240 On ch=1 n=45 v=80
30695 On ch=1 n=45 v=0
30720 On ch=1 n=53 v=80
31175 On ch=1 n=53 v=0
31680 On ch=1 n=46 v=80
32135 On ch=1 n=46 v=0
32160 On ch=1 n=53 v=80
32615 On ch=1 n=53 v=0
33120 On ch=1 n=41 v=80
33575 On ch=1 n=41 v=0
33600 On ch=1 n=53 v=80
34055 On ch=1 n=53 v=0
34560 On ch=1 n=39 v=80
35015 On ch=1 n=39 v=0
35040 On ch=1 n=46 v=80
35495 On ch=1 n=46 v=0
35520 On ch=1 n=51 v=80
35975 On ch=1 n=51 v=0
36000 On ch=1 n=40 v=80
36455 On ch=1 n=40 v=0
36480 On ch=1 n=48 v=80
36935 On ch=1 n=48 v=0
36960 On ch=1 n=55 v=80
37415 On ch=1 n=55 v=0
37440 On ch=1 n=41 v=80
37895 On ch=1 n=41 v=0
37920 On ch=1 n=48 v=80
38375 On ch=1 n=48 v=0
38400 On ch=1 n=57 v=80
38855 On ch=1 n=57 v=0
38880 On ch=1 n=41 v=80
39335 On ch=1 n=41 v=0
39360 On ch=1 n=48 v=80
39815 On ch=1 n=48 v=0
39840 On ch=1 n=53 v=80
40295 On ch=1 n=53 v=0
40320 On ch=1 n=46 v=80
40800 On ch=1 n=53 v=80
41687 On ch=1 n=46 v=0
41711 On ch=1 n=53 v=0
41760 On ch=1 n=44 v=80
42240 On ch=1 n=50 v=80
43127 On ch=1 n=44 v=0
43151 On ch=1 n=50 v=0
43200 On ch=1 n=43 v=80
43680 On ch=1 n=51 v=80
44567 On ch=1 n=43 v=0
44591 On ch=1 n=51 v=0
44640 On ch=1 n=42 v=80
45120 On ch=1 n=51 v=80
46007 On ch=1 n=42 v=0
46031 On ch=1 n=51 v=0
46080 On ch=1 n=41 v=80
46560 On ch=1 n=53 v=80
47447 On ch=1 n=41 v=0
47471 On ch=1 n=53 v=0
47520 On ch=1 n=41 v=80
48000 On ch=1 n=53 v=80
48887 On ch=1 n=41 v=0
48911 On ch=1 n=53 v=0
48960 On ch=1 n=46 v=80
49415 On ch=1 n=46 v=0
49440 On ch=1 n=53 v=80
49895 On ch=1 n=53 v=0
50400 On ch=1 n=41 v=80
50855 On ch=1 n=41 v=0
50880 On ch=1 n=53 v=80
51335 On ch=1 n=53 v=0
51840 On ch=1 n=46 v=80
52320 On ch=1 n=53 v=80
53207 On ch=1 n=46 v=0
53231 On ch=1 n=53 v=0
53280 On ch=1 n=45 v=80
53760 On ch=1 n=53 v=80
54647 On ch=1 n=45 v=0
54671 On ch=1 n=53 v=0
54720 On ch=1 n=50 v=80
55200 On ch=1 n=53 v=80
56087 On ch=1 n=50 v=0
56111 On ch=1 n=53 v=0
56160 On ch=1 n=43 v=80
57527 On ch=1 n=43 v=0
57600 On ch=1 n=41 v=80
58967 On ch=1 n=41 v=0
59040 On ch=1 n=43 v=80
60407 On ch=1 n=43 v=0
60480 On ch=1 n=36 v=80
60480 On ch=1 n=48 v=80
61847 On ch=1 n=36 v=0
61847 On ch=1 n=48 v=0
61920 On ch=1 n=41 v=80
62400 On ch=1 n=53 v=80
62855 On ch=1 n=53 v=0
62880 On ch=1 n=48 v=80
63287 On ch=1 n=41 v=0
63335 On ch=1 n=48 v=0
63360 On ch=1 n=46 v=80
63840 On ch=1 n=53 v=80
64727 On ch=1 n=46 v=0
64751 On ch=1 n=53 v=0
64800 On ch=1 n=45 v=80
65280 On ch=1 n=53 v=80
66167 On ch=1 n=45 v=0
66191 On ch=1 n=53 v=0
66240 On ch=1 n=50 v=80
66720 On ch=1 n=53 v=80
67607 On ch=1 n=50 v=0
67631 On ch=1 n=53 v=0
67680 On ch=1 n=43 v=80
69047 On ch=1 n=43 v=0
69120 On ch=1 n=41 v=80
69600 On ch=1 n=50 v=80
70487 On ch=1 n=41 v=0
70511 On ch=1 n=50 v=0
70560 On ch=1 n=41 v=80
70560 On ch=1 n=53 v=80
71927 On ch=1 n=41 v=0
71927 On ch=1 n=53 v=0
72000 On ch=1 n=46 v=80
72480 On ch=1 n=53 v=80
73367 On ch=1 n=46 v=0
73391 On ch=1 n=53 v=0
73440 On ch=1 n=41 v=80
73920 On ch=1 n=53 v=80
74807 On ch=1 n=41 v=0
74831 On ch=1 n=53 v=0
74880 On ch=1 n=45 v=80
75335 On ch=1 n=45 v=0
75360 On ch=1 n=53 v=80
75815 On ch=1 n=53 v=0
76320 On ch=1 n=45 v=80
76775 On ch=1 n=45 v=0
76800 On ch=1 n=53 v=80
77255 On ch=1 n=53 v=0
77760 On ch=1 n=46 v=80
78215 On ch=1 n=46 v=0
78240 On ch=1 n=53 v=80
78695 On ch=1 n=53 v=0
79200 On ch=1 n=41 v=80
79655 On ch=1 n=41 v=0
79680 On ch=1 n=53 v=80
80135 On ch=1 n=53 v=0
80640 On ch=1 n=39 v=80
81095 On ch=1 n=39 v=0
81120 On ch=1 n=46 v=80
81575 On ch=1 n=46 v=0
81600 On ch=1 n=51 v=80
82055 On ch=1 n=51 v=0
82080 On ch=1 n=40 v=80
82535 On ch=1 n=40 v=0
82560 On ch=1 n=48 v=80
83015 On ch=1 n=48 v=0
83040 On ch=1 n=55 v=80
83495 On ch=1 n=55 v=0
83520 On ch=1 n=41 v=80
83975 On ch=1 n=41 v=0
84000 On ch=1 n=48 v=80
84455 On ch=1 n=48 v=0
84480 On ch=1 n=57 v=80
84935 On ch=1 n=57 v=0
84960 On ch=1 n=41 v=80
85415 On ch=1 n=41 v=0
85440 On ch=1 n=48 v=80
85895 On ch=1 n=48 v=0
85920 On ch=1 n=53 v=80
86375 On ch=1 n=53 v=0
86400 On ch=1 n=46 v=80
86880 On ch=1 n=53 v=80
87767 On ch=1 n=46 v=0
87791 On ch=1 n=53 v=0
87840 On ch=1 n=44 v=80
88320 On ch=1 n=50 v=80
89207 On ch=1 n=44 v=0
89231 On ch=1 n=50 v=0
89280 On ch=1 n=43 v=80
89760 On ch=1 n=51 v=80
90647 On ch=1 n=43 v=0
90671 On ch=1 n=51 v=0
90720 On ch=1 n=42 v=80
91200 On ch=1 n=51 v=80
92087 On ch=1 n=42 v=0
92111 On ch=1 n=51 v=0
92160 On ch=1 n=41 v=80
92640 On ch=1 n=53 v=80
93527 On ch=1 n=41 v=0
93551 On ch=1 n=53 v=0
93600 On ch=1 n=41 v=80
94080 On ch=1 n=53 v=80
94967 On ch=1 n=41 v=0
94991 On ch=1 n=53 v=0
95040 On ch=1 n=46 v=80
95495 On ch=1 n=46 v=0
95520 On ch=1 n=53 v=80
95975 On ch=1 n=53 v=0
96000 On ch=1 n=62 v=80
96455 On ch=1 n=62 v=0
96480 On ch=1 n=43 v=80
96935 On ch=1 n=43 v=0
96960 On ch=1 n=50 v=80
97415 On ch=1 n=50 v=0
97440 On ch=1 n=58 v=80
97895 On ch=1 n=58 v=0
97920 On ch=1 n=48 v=80
98375 On ch=1 n=48 v=0
98400 On ch=1 n=55 v=80
98855 On ch=1 n=55 v=0
98880 On ch=1 n=58 v=80
99335 On ch=1 n=58 v=0
99360 On ch=1 n=41 v=80
99815 On ch=1 n=41 v=0
99840 On ch=1 n=55 v=80
100295 On ch=1 n=55 v=0
100320 On ch=1 n=57 v=80
100320 On ch=1 n=63 v=80
100775 On ch=1 n=57 v=0
100775 On ch=1 n=63 v=0
100800 On ch=1 n=34 v=80
100800 On ch=1 n=41 v=80
101407 On ch=1 n=50 v=80
101472 On ch=1 n=53 v=80
101535 On ch=1 n=58 v=80
101758 On ch=1 n=50 v=0
101758 On ch=1 n=58 v=0
101759 On ch=1 n=53 v=0
101887 On ch=1 n=53 v=80
101952 On ch=1 n=58 v=80
102015 On ch=1 n=62 v=80
102238 On ch=1 n=53 v=0
102238 On ch=1 n=62 v=0
102239 On ch=1 n=58 v=0
102366 On ch=1 n=58 v=80
102431 On ch=1 n=62 v=80
102494 On ch=1 n=65 v=80
103463 On ch=1 n=41 v=0
103655 On ch=1 n=34 v=0
103678 On ch=1 n=58 v=0
103678 On ch=1 n=62 v=0
103678 On ch=1 n=65 v=0
